<svg xmlns="http://www.w3.org/2000/svg" viewBox="0 0 24 24" fill="none" stroke="url(#grad)" stroke-width="2">
  <defs>
    <linearGradient id="grad" x1="0%" y1="0%" x2="100%" y2="100%">
      <stop offset="0%" stop-color="#60a5fa"></stop>
      <stop offset="50%" stop-color="#6366f1"></stop>
      <stop offset="100%" stop-color="#a855f7"></stop>
    </linearGradient>
  </defs>

  <path d="M9 3a3 3 0 0 0-3 3v1a3 3 0 0 0-2 3v1a3 3 0 0 0 3 3h1"></path>
  <path d="M15 3a3 3 0 0 1 3 3v1a3 3 0 0 1 2 3v1a3 3 0 0 1-3 3h-1"></path>
  <circle cx="12" cy="8" r="1"></circle>
  <circle cx="12" cy="16" r="1"></circle>
  <path d="M9 12h6"></path>
</svg>